TIMESHIFT<855>,NOTE-ON<48>,TIMESHIFT<761>,TIMESHIFT<1022>,NOTE-ON<71>,SET-VELOCITY<110>,TIMESHIFT<1021>,NOTE-ON<36>,TIMESHIFT<53>,TIMESHIFT<45>,NOTE-OFF<60>,TIMESHIFT<143>,TIMESHIFT<789>,TIMESHIFT<447>,TIMESHIFT<412>,TIMESHIFT<594>,SET-VELOCITY<106>,TIMESHIFT<275>,NOTE-ON<49>,TIMESHIFT<218>,TIMESHIFT<6>,TIMESHIFT<422>,SET-VELOCITY<44>,TIMESHIFT<294>,TIMESHIFT<308>,TIMESHIFT<435>,SET-VELOCITY<34>,NOTE-OFF<33>,TIMESHIFT<1094>,SET-VELOCITY<119>,TIMESHIFT<338>,TIMESHIFT<327>,TIMESHIFT<1268>,TIMESHIFT<314>,TIMESHIFT<224>,TIMESHIFT<198>,TIMESHIFT<479>,TIMESHIFT<191>,TIMESHIFT<66>,SET-VELOCITY<107>,TIMESHIFT<162>,TIMESHIFT<267>,TIMESHIFT<264>,TIMESHIFT<313>,TIMESHIFT<280>,NOTE-OFF<22>,TIMESHIFT<10>,TIMESHIFT<414>,NOTE-OFF<45>,TIMESHIFT<734>,TIMESHIFT<318>,TIMESHIFT<130>,NOTE-ON<67>,TIMESHIFT<125>,TIMESHIFT<194>,NOTE-OFF<28>,SET-VELOCITY<33>,TIMESHIFT<1340>,SET-VELOCITY<25>,SET-VELOCITY<54>,TIMESHIFT<265>,TIMESHIFT<19>,TIMESHIFT<477>,TIMESHIFT<431>,TIMESHIFT<786>,TIMESHIFT<750>,TIMESHIFT<765>,NOTE-OFF<57>,TIMESHIFT<514>,TIMESHIFT<653>,TIMESHIFT<419>,TIMESHIFT<169>,TIMESHIFT<1087>,TIMESHIFT<233>,SET-VELOCITY<115>,SET-VELOCITY<82>,TIMESHIFT<226>,TIMESHIFT<386>,TIMESHIFT<719>,TIMESHIFT<1539>,TIMESHIFT<623>,NOTE-OFF<30>,SET-VELOCITY<30>,TIMESHIFT<778>,TIMESHIFT<358>,TIMESHIFT<410>,NOTE-OFF<66>,NOTE-ON<85>,TIMESHIFT<749>,TIMESHIFT<257>,NOTE-ON<70>,TIMESHIFT<799>,TIMESHIFT<309>,TIMESHIFT<159>,TIMESHIFT<320>,TIMESHIFT<430>,TIMESHIFT<417>,TIMESHIFT<332>,NOTE-ON<92>,TIMESHIFT<442>,TIMESHIFT<4>,SET-VELOCITY<68>,TIMESHIFT<656>,NOTE-OFF<76>,TIMESHIFT<44>,TIMESHIFT<325>,TIMESHIFT<547>,NOTE-ON<56>,TIMESHIFT<111>,SET-VELOCITY<114>,TIMESHIFT<36>,NOTE-ON<101>,TIMESHIFT<823>,TIMESHIFT<61>,NOTE-ON<76>,SET-VELOCITY<58>,SET-VELOCITY<66>,TIMESHIFT<502>,TIMESHIFT<322>,TIMESHIFT<305>,SET-VELOCITY<46>,NOTE-ON<104>,NOTE-OFF<97>,TIMESHIFT<164>,TIMESHIFT<316>,TIMESHIFT<605>,TIMESHIFT<581>,NOTE-ON<37>,TIMESHIFT<120>,TIMESHIFT<207>,TIMESHIFT<780>,TIMESHIFT<62>,TIMESHIFT<249>,TIMESHIFT<281>,NOTE-ON<87>,NOTE-ON<24>,TIMESHIFT<213>,NOTE-ON<91>,TIMESHIFT<50>,TIMESHIFT<449>,TIMESHIFT<394>,TIMESHIFT<29>,NOTE-ON<83>,TIMESHIFT<227>,TIMESHIFT<70>,NOTE-ON<90>,NOTE-OFF<27>,TIMESHIFT<384>,TIMESHIFT<49>,TIMESHIFT<1063>,NOTE-OFF<74>,NOTE-OFF<83>,NOTE-OFF<29>,TIMESHIFT<813>,TIMESHIFT<302>,NOTE-OFF<32>,NOTE-OFF<78>,TIMESHIFT<323>,TIMESHIFT<277>,TIMESHIFT<307>,TIMESHIFT<119>,SET-VELOCITY<73>,SET-VELOCITY<49>,TIMESHIFT<702>,TIMESHIFT<1231>,TIMESHIFT<241>,TIMESHIFT<200>,NOTE-OFF<106>,TIMESHIFT<476>,TIMESHIFT<369>,SET-VELOCITY<51>,TIMESHIFT<1040>,TIMESHIFT<609>,NOTE-ON<72>,TIMESHIFT<643>,NOTE-OFF<21>,TIMESHIFT<492>,TIMESHIFT<333>,NOTE-OFF<44>,TIMESHIFT<71>,TIMESHIFT<7>,TIMESHIFT<310>,TIMESHIFT<936>,TIMESHIFT<837>,TIMESHIFT<549>,TIMESHIFT<746>,TIMESHIFT<39>,NOTE-ON<41>,TIMESHIFT<250>,SET-VELOCITY<63>,NOTE-ON<30>,TIMESHIFT<158>,NOTE-OFF<107>,NOTE-ON<34>,NOTE-OFF<54>,TIMESHIFT<510>,SET-VELOCITY<94>,SET-VELOCITY<64>,NOTE-ON<33>,NOTE-ON<50>,TIMESHIFT<133>,TIMESHIFT<208>,TIMESHIFT<229>,NOTE-OFF<89>,TIMESHIFT<454>,TIMESHIFT<467>,TIMESHIFT<103>,TIMESHIFT<339>,TIMESHIFT<585>,TIMESHIFT<398>,NOTE-ON<46>,TIMESHIFT<263>,TIMESHIFT<42>,TIMESHIFT<897>,TIMESHIFT<328>,NOTE-OFF<63>,SET-VELOCITY<28>,TIMESHIFT<214>,NOTE-OFF<64>,SET-VELOCITY<21>,NOTE-OFF<103>,NOTE-ON<84>,NOTE-OFF<101>,TIMESHIFT<326>,NOTE-ON<86>,SET-VELOCITY<29>,SET-VELOCITY<16>,SET-VELOCITY<22>,TIMESHIFT<32>,TIMESHIFT<591>,SET-VELOCITY<19>,NOTE-OFF<69>,TIMESHIFT<238>,TIMESHIFT<221>,TIMESHIFT<1219>,TIMESHIFT<494>,TIMESHIFT<236>,SET-VELOCITY<70>,SET-VELOCITY<60>,NOTE-OFF<43>,TIMESHIFT<168>,TIMESHIFT<683>,TIMESHIFT<63>,TIMESHIFT<360>,TIMESHIFT<147>,TIMESHIFT<282>,SET-VELOCITY<75>,TIMESHIFT<180>,TIMESHIFT<251>,TIMESHIFT<1008>,NOTE-ON<100>,TIMESHIFT<174>,TIMESHIFT<28>,NOTE-ON<102>,TIMESHIFT<526>,SET-VELOCITY<47>,NOTE-ON<77>,NOTE-ON<68>,TIMESHIFT<12>,NOTE-ON<58>,TIMESHIFT<153>,NOTE-ON<107>,NOTE-OFF<37>,TIMESHIFT<1>,TIMESHIFT<350>,TIMESHIFT<27>,NOTE-ON<42>,TIMESHIFT<433>,TIMESHIFT<1223>,TIMESHIFT<401>,NOTE-ON<66>,TIMESHIFT<2052>,TIMESHIFT<33>,TIMESHIFT<615>,TIMESHIFT<204>,TIMESHIFT<471>,TIMESHIFT<88>,TIMESHIFT<195>,NOTE-OFF<73>,TIMESHIFT<301>,TIMESHIFT<167>,TIMESHIFT<544>,TIMESHIFT<123>,SET-VELOCITY<3>,NOTE-OFF<95>,TIMESHIFT<366>,TIMESHIFT<291>,TIMESHIFT<411>,TIMESHIFT<234>,TIMESHIFT<362>,SET-VELOCITY<87>,SET-VELOCITY<11>,SET-VELOCITY<14>,TIMESHIFT<363>,SET-VELOCITY<6>,TIMESHIFT<222>,TIMESHIFT<77>,TIMESHIFT<110>,TIMESHIFT<496>,TIMESHIFT<135>,TIMESHIFT<387>,TIMESHIFT<124>,TIMESHIFT<484>,TIMESHIFT<245>,TIMESHIFT<30>,TIMESHIFT<248>,TIMESHIFT<680>,TIMESHIFT<312>,TIMESHIFT<377>,TIMESHIFT<662>,TIMESHIFT<393>,TIMESHIFT<137>,TIMESHIFT<232>,SET-VELOCITY<40>,NOTE-OFF<52>,SET-VELOCITY<1>,TIMESHIFT<57>,TIMESHIFT<587>,TIMESHIFT<898>,SET-VELOCITY<10>,NOTE-ON<45>,TIMESHIFT<533>,SET-VELOCITY<62>,TIMESHIFT<286>,SET-VELOCITY<109>,TIMESHIFT<782>,TIMESHIFT<148>,NOTE-ON<27>,TIMESHIFT<747>,TIMESHIFT<3>,SET-VELOCITY<81>,TIMESHIFT<237>,NOTE-ON<25>,SET-VELOCITY<27>,TIMESHIFT<361>,TIMESHIFT<156>,TIMESHIFT<630>,TIMESHIFT<0>,TIMESHIFT<461>,NOTE-OFF<41>,TIMESHIFT<1086>,TIMESHIFT<100>,NOTE-OFF<65>,TIMESHIFT<348>,TIMESHIFT<380>,TIMESHIFT<161>,TIMESHIFT<973>,TIMESHIFT<531>,SET-VELOCITY<15>,SET-VELOCITY<95>,SET-VELOCITY<117>,SET-VELOCITY<48>,TIMESHIFT<1922>,SET-VELOCITY<31>,SET-VELOCITY<74>,TIMESHIFT<90>,TIMESHIFT<1474>,TIMESHIFT<11>,TIMESHIFT<290>,TIMESHIFT<453>,NOTE-OFF<49>,NOTE-OFF<42>,NOTE-OFF<31>,TIMESHIFT<321>,TIMESHIFT<181>,SET-VELOCITY<55>,TIMESHIFT<850>,TIMESHIFT<357>,TIMESHIFT<270>,TIMESHIFT<665>,NOTE-OFF<48>,NOTE-OFF<39>,TIMESHIFT<217>,SET-VELOCITY<97>,TIMESHIFT<295>,TIMESHIFT<541>,TIMESHIFT<345>,TIMESHIFT<108>,NOTE-OFF<70>,TIMESHIFT<141>,NOTE-ON<61>,NOTE-OFF<51>,NOTE-OFF<84>,TIMESHIFT<209>,TIMESHIFT<331>,NOTE-ON<62>,NOTE-OFF<56>,TIMESHIFT<69>,NOTE-ON<93>,SET-VELOCITY<41>,TIMESHIFT<274>,TIMESHIFT<376>,TIMESHIFT<46>,TIMESHIFT<487>,NOTE-OFF<59>,SET-VELOCITY<79>,NOTE-ON<57>,NOTE-ON<69>,NOTE-ON<65>,NOTE-OFF<87>,TIMESHIFT<113>,NOTE-ON<59>,NOTE-OFF<68>,SET-VELOCITY<112>,NOTE-ON<88>,TIMESHIFT<1285>,TIMESHIFT<681>,TIMESHIFT<415>,TIMESHIFT<406>,TIMESHIFT<343>,NOTE-OFF<47>,TIMESHIFT<355>,TIMESHIFT<84>,TIMESHIFT<178>,TIMESHIFT<278>,TIMESHIFT<493>,TIMESHIFT<283>,SET-VELOCITY<92>,SET-VELOCITY<116>,TIMESHIFT<65>,NOTE-OFF<25>,TIMESHIFT<374>,TIMESHIFT<525>,NOTE-OFF<86>,NOTE-ON<29>,TIMESHIFT<426>,TIMESHIFT<317>,TIMESHIFT<578>,TIMESHIFT<446>,TIMESHIFT<723>,SET-VELOCITY<96>,TIMESHIFT<93>,TIMESHIFT<150>,TIMESHIFT<341>,TIMESHIFT<288>,TIMESHIFT<34>,NOTE-ON<97>,TIMESHIFT<188>,TIMESHIFT<163>,NOTE-ON<75>,SET-VELOCITY<86>,NOTE-ON<21>,TIMESHIFT<602>,TIMESHIFT<522>,TIMESHIFT<258>,TIMESHIFT<15>,TIMESHIFT<145>,TIMESHIFT<118>,TIMESHIFT<64>,TIMESHIFT<296>,TIMESHIFT<155>,TIMESHIFT<691>,TIMESHIFT<131>,TIMESHIFT<598>,TIMESHIFT<354>,NOTE-OFF<71>,TIMESHIFT<184>,TIMESHIFT<760>,NOTE-OFF<81>,TIMESHIFT<8>,TIMESHIFT<151>,TIMESHIFT<407>,NOTE-OFF<88>,TIMESHIFT<170>,SET-VELOCITY<9>,TIMESHIFT<212>,TIMESHIFT<160>,SET-VELOCITY<111>,TIMESHIFT<892>,TIMESHIFT<381>,NOTE-ON<73>,TIMESHIFT<203>,NOTE-OFF<26>,TIMESHIFT<351>,TIMESHIFT<545>,TIMESHIFT<105>,TIMESHIFT<157>,SET-VELOCITY<93>,TIMESHIFT<937>,TIMESHIFT<5>,TIMESHIFT<255>,NOTE-OFF<61>,TIMESHIFT<1569>,NOTE-OFF<91>,SET-VELOCITY<72>,TIMESHIFT<177>,TIMESHIFT<14>,TIMESHIFT<346>,SET-VELOCITY<59>,TIMESHIFT<228>,NOTE-OFF<55>,SET-VELOCITY<125>,TIMESHIFT<465>,TIMESHIFT<261>,TIMESHIFT<26>,TIMESHIFT<347>,NOTE-ON<23>,TIMESHIFT<205>,TIMESHIFT<365>,TIMESHIFT<262>,TIMESHIFT<82>,SET-VELOCITY<77>,TIMESHIFT<38>,TIMESHIFT<98>,TIMESHIFT<495>,TIMESHIFT<729>,TIMESHIFT<397>,NOTE-ON<108>,NOTE-OFF<67>,NOTE-OFF<80>,SET-VELOCITY<89>,TIMESHIFT<25>,TIMESHIFT<356>,TIMESHIFT<648>,TIMESHIFT<86>,TIMESHIFT<146>,NOTE-OFF<34>,TIMESHIFT<337>,TIMESHIFT<47>,SET-VELOCITY<65>,SET-VELOCITY<108>,TIMESHIFT<269>,SET-VELOCITY<52>,NOTE-OFF<85>,SET-VELOCITY<24>,TIMESHIFT<709>,TIMESHIFT<987>,SET-VELOCITY<13>,NOTE-ON<99>,TIMESHIFT<1821>,TIMESHIFT<612>,TIMESHIFT<306>,TIMESHIFT<74>,NOTE-ON<60>,NOTE-OFF<90>,NOTE-ON<78>,NOTE-ON<106>,TIMESHIFT<622>,TIMESHIFT<835>,SET-VELOCITY<61>,TIMESHIFT<276>,TIMESHIFT<1200>,TIMESHIFT<101>,TIMESHIFT<997>,TIMESHIFT<256>,TIMESHIFT<20>,TIMESHIFT<481>,TIMESHIFT<1125>,TIMESHIFT<470>,TIMESHIFT<625>,TIMESHIFT<644>,NOTE-ON<40>,TIMESHIFT<404>,TIMESHIFT<115>,TIMESHIFT<37>,TIMESHIFT<311>,TIMESHIFT<246>,TIMESHIFT<67>,NOTE-ON<31>,TIMESHIFT<128>,NOTE-ON<44>,TIMESHIFT<31>,NOTE-ON<74>,NOTE-OFF<98>,TIMESHIFT<107>,TIMESHIFT<211>,NOTE-ON<79>,SET-VELOCITY<17>,NOTE-ON<54>,TIMESHIFT<692>,TIMESHIFT<129>,TIMESHIFT<329>,NOTE-OFF<92>,TIMESHIFT<388>,SET-VELOCITY<12>,TIMESHIFT<710>,TIMESHIFT<1011>,SET-VELOCITY<84>,TIMESHIFT<838>,TIMESHIFT<216>,NOTE-OFF<108>,SET-VELOCITY<5>,TIMESHIFT<117>,TIMESHIFT<24>,TIMESHIFT<149>,TIMESHIFT<85>,TIMESHIFT<197>,TIMESHIFT<247>,TIMESHIFT<978>,TIMESHIFT<215>,TIMESHIFT<2>,TIMESHIFT<344>,TIMESHIFT<285>,TIMESHIFT<661>,TIMESHIFT<231>,TIMESHIFT<83>,TIMESHIFT<187>,TIMESHIFT<56>,SET-VELOCITY<4>,TIMESHIFT<304>,NOTE-OFF<104>,TIMESHIFT<80>,TIMESHIFT<457>,TIMESHIFT<154>,SET-VELOCITY<45>,TIMESHIFT<95>,TIMESHIFT<440>,TIMESHIFT<79>,TIMESHIFT<739>,TIMESHIFT<718>,TIMESHIFT<1164>,SET-VELOCITY<80>,TIMESHIFT<757>,TIMESHIFT<136>,SET-VELOCITY<122>,TIMESHIFT<375>,NOTE-OFF<58>,NOTE-OFF<99>,NOTE-OFF<36>,TIMESHIFT<210>,TIMESHIFT<289>,TIMESHIFT<954>,NOTE-OFF<75>,TIMESHIFT<122>,TIMESHIFT<196>,TIMESHIFT<961>,TIMESHIFT<1194>,TIMESHIFT<695>,TIMESHIFT<352>,TIMESHIFT<523>,TIMESHIFT<429>,NOTE-ON<80>,TIMESHIFT<52>,TIMESHIFT<491>,TIMESHIFT<254>,SET-VELOCITY<23>,NOTE-ON<89>,TIMESHIFT<469>,NOTE-OFF<35>,TIMESHIFT<92>,TIMESHIFT<244>,TIMESHIFT<284>,TIMESHIFT<51>,TIMESHIFT<152>,TIMESHIFT<94>,TIMESHIFT<956>,TIMESHIFT<575>,NOTE-ON<26>,SET-VELOCITY<88>,NOTE-ON<94>,TIMESHIFT<690>,NOTE-OFF<38>,TIMESHIFT<121>,NOTE-OFF<46>,TIMESHIFT<783>,TIMESHIFT<89>,SET-VELOCITY<101>,TIMESHIFT<315>,TIMESHIFT<553>,TIMESHIFT<400>,TIMESHIFT<319>,SET-VELOCITY<76>,TIMESHIFT<604>,TIMESHIFT<303>,TIMESHIFT<189>,NOTE-ON<55>,TIMESHIFT<60>,TIMESHIFT<76>,TIMESHIFT<906>,SET-VELOCITY<100>,TIMESHIFT<373>,TIMESHIFT<1175>,TIMESHIFT<532>,NOTE-ON<98>,SET-VELOCITY<78>,NOTE-OFF<40>,SET-VELOCITY<99>,SET-VELOCITY<2>,TIMESHIFT<144>,TIMESHIFT<287>,SET-VELOCITY<38>,TIMESHIFT<102>,TIMESHIFT<364>,TIMESHIFT<239>,TIMESHIFT<498>,TIMESHIFT<876>,TIMESHIFT<597>,TIMESHIFT<1248>,SET-VELOCITY<36>,TIMESHIFT<777>,TIMESHIFT<201>,TIMESHIFT<18>,NOTE-OFF<105>,TIMESHIFT<72>,TIMESHIFT<1152>,TIMESHIFT<809>,SET-VELOCITY<104>,NOTE-OFF<23>,TIMESHIFT<409>,TIMESHIFT<418>,NOTE-OFF<94>,TIMESHIFT<259>,TIMESHIFT<368>,TIMESHIFT<561>,TIMESHIFT<298>,TIMESHIFT<703>,TIMESHIFT<416>,TIMESHIFT<192>,TIMESHIFT<23>,TIMESHIFT<629>,TIMESHIFT<684>,NOTE-OFF<100>,SET-VELOCITY<113>,SET-VELOCITY<85>,TIMESHIFT<35>,NOTE-ON<52>,TIMESHIFT<206>,TIMESHIFT<243>,TIMESHIFT<540>,TIMESHIFT<420>,NOTE-OFF<50>,TIMESHIFT<794>,TIMESHIFT<172>,TIMESHIFT<16>,TIMESHIFT<242>,SET-VELOCITY<69>,TIMESHIFT<266>,NOTE-OFF<53>,TIMESHIFT<48>,TIMESHIFT<175>,TIMESHIFT<300>,TIMESHIFT<488>,SET-VELOCITY<37>,TIMESHIFT<220>,TIMESHIFT<225>,TIMESHIFT<9>,TIMESHIFT<97>,TIMESHIFT<565>,TIMESHIFT<878>,TIMESHIFT<22>,TIMESHIFT<21>,TIMESHIFT<127>,TIMESHIFT<755>,TIMESHIFT<741>,NOTE-ON<32>,TIMESHIFT<439>,TIMESHIFT<1291>,TIMESHIFT<186>,TIMESHIFT<299>,NOTE-ON<39>,TIMESHIFT<539>,NOTE-OFF<93>,TIMESHIFT<324>,TIMESHIFT<560>,TIMESHIFT<75>,TIMESHIFT<342>,TIMESHIFT<253>,TIMESHIFT<848>,TIMESHIFT<202>,TIMESHIFT<140>,TIMESHIFT<637>,TIMESHIFT<99>,TIMESHIFT<193>,SET-VELOCITY<39>,TIMESHIFT<87>,TIMESHIFT<844>,TIMESHIFT<58>,TIMESHIFT<41>,TIMESHIFT<116>,NOTE-OFF<24>,TIMESHIFT<399>,TIMESHIFT<81>,NOTE-ON<105>,SET-VELOCITY<26>,NOTE-ON<35>,TIMESHIFT<960>,TIMESHIFT<830>,TIMESHIFT<179>,TIMESHIFT<173>,NOTE-ON<47>,TIMESHIFT<572>,NOTE-ON<51>,TIMESHIFT<199>,TIMESHIFT<73>,NOTE-OFF<96>,TIMESHIFT<230>,SET-VELOCITY<123>,TIMESHIFT<165>,SET-VELOCITY<18>,SET-VELOCITY<105>,SET-VELOCITY<126>,SET-VELOCITY<121>,TIMESHIFT<112>,TIMESHIFT<379>,SET-VELOCITY<98>,TIMESHIFT<859>,NOTE-OFF<62>,NOTE-ON<63>,TIMESHIFT<78>,NOTE-ON<22>,TIMESHIFT<268>,TIMESHIFT<54>,TIMESHIFT<166>,TIMESHIFT<370>,TIMESHIFT<132>,NOTE-ON<28>,TIMESHIFT<68>,NOTE-ON<43>,NOTE-ON<53>,TIMESHIFT<460>,TIMESHIFT<408>,TIMESHIFT<1242>,SET-VELOCITY<43>,TIMESHIFT<235>,SET-VELOCITY<103>,TIMESHIFT<260>,TIMESHIFT<626>,NOTE-OFF<79>,TIMESHIFT<279>,TIMESHIFT<190>,TIMESHIFT<505>,SET-VELOCITY<42>,TIMESHIFT<459>,TIMESHIFT<273>,TIMESHIFT<1122>,TIMESHIFT<43>,NOTE-OFF<77>,TIMESHIFT<59>,SET-VELOCITY<53>,TIMESHIFT<334>,NOTE-ON<96>,TIMESHIFT<176>,TIMESHIFT<516>,TIMESHIFT<353>,TIMESHIFT<292>,NOTE-ON<95>,SET-VELOCITY<50>,TIMESHIFT<2018>,SET-VELOCITY<7>,TIMESHIFT<109>,TIMESHIFT<421>,TIMESHIFT<634>,TIMESHIFT<538>,TIMESHIFT<17>,TIMESHIFT<455>,TIMESHIFT<359>,TIMESHIFT<271>,TIMESHIFT<336>,TIMESHIFT<675>,TIMESHIFT<182>,TIMESHIFT<831>,TIMESHIFT<664>,TIMESHIFT<106>,TIMESHIFT<543>,TIMESHIFT<96>,SET-VELOCITY<118>,TIMESHIFT<171>,SET-VELOCITY<57>,TIMESHIFT<1182>,TIMESHIFT<378>,SET-VELOCITY<32>,TIMESHIFT<114>,NOTE-ON<103>,TIMESHIFT<297>,TIMESHIFT<340>,SET-VELOCITY<90>,TIMESHIFT<633>,TIMESHIFT<579>,TIMESHIFT<349>,TIMESHIFT<608>,TIMESHIFT<139>,SET-VELOCITY<91>,TIMESHIFT<13>,TIMESHIFT<142>,TIMESHIFT<330>,TIMESHIFT<842>,SET-VELOCITY<102>,NOTE-OFF<72>,SET-VELOCITY<71>,TIMESHIFT<104>,TIMESHIFT<775>,NOTE-OFF<102>,TIMESHIFT<240>,TIMESHIFT<183>,TIMESHIFT<138>,TIMESHIFT<91>,SET-VELOCITY<124>,TIMESHIFT<475>,TIMESHIFT<293>,TIMESHIFT<219>,SET-VELOCITY<67>,NOTE-ON<81>,SET-VELOCITY<83>,TIMESHIFT<126>,TIMESHIFT<40>,NOTE-ON<64>,TIMESHIFT<185>,SET-VELOCITY<20>,TIMESHIFT<134>,TIMESHIFT<252>,TIMESHIFT<55>,SET-VELOCITY<8>,TIMESHIFT<517>,NOTE-ON<82>,TIMESHIFT<223>,SET-VELOCITY<35>,TIMESHIFT<500>,SET-VELOCITY<56>,NOTE-OFF<82>,TIMESHIFT<434>,NOTE-ON<38>,SET-VELOCITY<120>